<mxfile host="app.diagrams.net" modified="2021-05-17T06:25:04.442Z" agent="5.0 (Macintosh; Intel Mac OS X 10_15_6) AppleWebKit/605.1.15 (KHTML, like Gecko) Version/13.1.2 Safari/605.1.15" etag="WeWFS1-pIwU_v1D-jWWZ" version="14.6.13" type="github">
  <diagram id="HZI064cYkGDwkJEJr3Qx" name="Page-1">
    <mxGraphModel dx="1796" dy="662" grid="1" gridSize="10" guides="1" tooltips="1" connect="1" arrows="1" fold="1" page="1" pageScale="1" pageWidth="850" pageHeight="1100" math="0" shadow="0">
      <root>
        <mxCell id="0" />
        <mxCell id="1" parent="0" />
        <mxCell id="Or8a-sF6UrkhiUAnf4d3-2" value="System Architecture Diagram" style="text;html=1;strokeColor=none;fillColor=none;align=center;verticalAlign=middle;whiteSpace=wrap;rounded=0;" parent="1" vertex="1">
          <mxGeometry x="205" y="30" width="210" height="20" as="geometry" />
        </mxCell>
        <mxCell id="Or8a-sF6UrkhiUAnf4d3-3" value="eHealth Database" style="shape=cylinder;whiteSpace=wrap;html=1;boundedLbl=1;backgroundOutline=1;" parent="1" vertex="1">
          <mxGeometry x="130" y="66" width="60" height="72" as="geometry" />
        </mxCell>
        <mxCell id="Or8a-sF6UrkhiUAnf4d3-4" value="Cloud Server and internal server" style="ellipse;shape=cloud;whiteSpace=wrap;html=1;" parent="1" vertex="1">
          <mxGeometry x="250" y="70" width="120" height="72" as="geometry" />
        </mxCell>
        <mxCell id="Or8a-sF6UrkhiUAnf4d3-5" value="Backup Server" style="whiteSpace=wrap;html=1;aspect=fixed;" parent="1" vertex="1">
          <mxGeometry x="440" y="74" width="80" height="72" as="geometry" />
        </mxCell>
        <mxCell id="Or8a-sF6UrkhiUAnf4d3-6" value="Backup of eHealth Database" style="shape=cylinder;whiteSpace=wrap;html=1;boundedLbl=1;backgroundOutline=1;" parent="1" vertex="1">
          <mxGeometry x="590" y="66" width="60" height="72" as="geometry" />
        </mxCell>
        <mxCell id="Or8a-sF6UrkhiUAnf4d3-7" value="" style="endArrow=none;html=1;entryX=0.16;entryY=0.55;entryDx=0;entryDy=0;entryPerimeter=0;exitX=1.05;exitY=0.613;exitDx=0;exitDy=0;exitPerimeter=0;" parent="1" target="Or8a-sF6UrkhiUAnf4d3-4" edge="1">
          <mxGeometry width="50" height="50" relative="1" as="geometry">
            <mxPoint x="193" y="115.03999999999996" as="sourcePoint" />
            <mxPoint x="269.20000000000005" y="110" as="targetPoint" />
          </mxGeometry>
        </mxCell>
        <mxCell id="Or8a-sF6UrkhiUAnf4d3-8" value="" style="endArrow=none;dashed=1;html=1;entryX=0;entryY=0.425;entryDx=0;entryDy=0;entryPerimeter=0;exitX=0.875;exitY=0.5;exitDx=0;exitDy=0;exitPerimeter=0;" parent="1" source="Or8a-sF6UrkhiUAnf4d3-4" target="Or8a-sF6UrkhiUAnf4d3-5" edge="1">
          <mxGeometry width="50" height="50" relative="1" as="geometry">
            <mxPoint x="360" y="136" as="sourcePoint" />
            <mxPoint x="410" y="86" as="targetPoint" />
          </mxGeometry>
        </mxCell>
        <mxCell id="Or8a-sF6UrkhiUAnf4d3-9" value="" style="endArrow=none;html=1;entryX=0;entryY=0.6;entryDx=0;entryDy=0;exitX=1;exitY=0.5;exitDx=0;exitDy=0;entryPerimeter=0;" parent="1" source="Or8a-sF6UrkhiUAnf4d3-5" target="Or8a-sF6UrkhiUAnf4d3-6" edge="1">
          <mxGeometry width="50" height="50" relative="1" as="geometry">
            <mxPoint x="520" y="136" as="sourcePoint" />
            <mxPoint x="570" y="86" as="targetPoint" />
          </mxGeometry>
        </mxCell>
        <mxCell id="Or8a-sF6UrkhiUAnf4d3-11" value="chinese medicine stroke prevention and post- stroke platform" style="rounded=0;whiteSpace=wrap;html=1;" parent="1" vertex="1">
          <mxGeometry x="101" y="200" width="400" height="140" as="geometry" />
        </mxCell>
        <mxCell id="Or8a-sF6UrkhiUAnf4d3-14" value="" style="endArrow=none;html=1;entryX=0.55;entryY=0.95;entryDx=0;entryDy=0;entryPerimeter=0;exitX=0.538;exitY=0;exitDx=0;exitDy=0;exitPerimeter=0;" parent="1" source="Or8a-sF6UrkhiUAnf4d3-11" target="Or8a-sF6UrkhiUAnf4d3-4" edge="1">
          <mxGeometry width="50" height="50" relative="1" as="geometry">
            <mxPoint x="350" y="320" as="sourcePoint" />
            <mxPoint x="350" y="300" as="targetPoint" />
            <Array as="points" />
          </mxGeometry>
        </mxCell>
        <mxCell id="Or8a-sF6UrkhiUAnf4d3-30" style="edgeStyle=orthogonalEdgeStyle;rounded=0;orthogonalLoop=1;jettySize=auto;html=1;" parent="1" source="Or8a-sF6UrkhiUAnf4d3-20" edge="1">
          <mxGeometry relative="1" as="geometry">
            <mxPoint x="141" y="340" as="targetPoint" />
          </mxGeometry>
        </mxCell>
        <mxCell id="Or8a-sF6UrkhiUAnf4d3-31" style="edgeStyle=orthogonalEdgeStyle;rounded=0;orthogonalLoop=1;jettySize=auto;html=1;" parent="1" source="Or8a-sF6UrkhiUAnf4d3-20" edge="1">
          <mxGeometry relative="1" as="geometry">
            <Array as="points">
              <mxPoint x="60" y="370" />
              <mxPoint x="221" y="370" />
            </Array>
            <mxPoint x="221" y="340" as="targetPoint" />
          </mxGeometry>
        </mxCell>
        <mxCell id="Or8a-sF6UrkhiUAnf4d3-32" style="edgeStyle=orthogonalEdgeStyle;rounded=0;orthogonalLoop=1;jettySize=auto;html=1;entryX=0.5;entryY=1;entryDx=0;entryDy=0;" parent="1" source="Or8a-sF6UrkhiUAnf4d3-20" edge="1">
          <mxGeometry relative="1" as="geometry">
            <Array as="points">
              <mxPoint x="60" y="370" />
              <mxPoint x="301" y="370" />
            </Array>
            <mxPoint x="301" y="340" as="targetPoint" />
          </mxGeometry>
        </mxCell>
        <mxCell id="Or8a-sF6UrkhiUAnf4d3-20" value="Individual" style="rounded=0;whiteSpace=wrap;html=1;" parent="1" vertex="1">
          <mxGeometry y="400" width="120" height="60" as="geometry" />
        </mxCell>
        <mxCell id="Or8a-sF6UrkhiUAnf4d3-21" value="Doctor" style="rounded=0;whiteSpace=wrap;html=1;" parent="1" vertex="1">
          <mxGeometry x="130" y="400" width="120" height="60" as="geometry" />
        </mxCell>
        <mxCell id="Or8a-sF6UrkhiUAnf4d3-37" style="edgeStyle=orthogonalEdgeStyle;rounded=0;orthogonalLoop=1;jettySize=auto;html=1;entryX=0.613;entryY=1;entryDx=0;entryDy=0;entryPerimeter=0;" parent="1" source="Or8a-sF6UrkhiUAnf4d3-22" edge="1">
          <mxGeometry relative="1" as="geometry">
            <Array as="points">
              <mxPoint x="321" y="380" />
              <mxPoint x="150" y="380" />
            </Array>
            <mxPoint x="150.03999999999996" y="340" as="targetPoint" />
          </mxGeometry>
        </mxCell>
        <mxCell id="Or8a-sF6UrkhiUAnf4d3-38" style="edgeStyle=orthogonalEdgeStyle;rounded=0;orthogonalLoop=1;jettySize=auto;html=1;entryX=0.25;entryY=1;entryDx=0;entryDy=0;" parent="1" source="Or8a-sF6UrkhiUAnf4d3-22" edge="1">
          <mxGeometry relative="1" as="geometry">
            <Array as="points">
              <mxPoint x="321" y="380" />
              <mxPoint x="201" y="380" />
            </Array>
            <mxPoint x="201" y="340" as="targetPoint" />
          </mxGeometry>
        </mxCell>
        <mxCell id="Or8a-sF6UrkhiUAnf4d3-39" style="edgeStyle=orthogonalEdgeStyle;rounded=0;orthogonalLoop=1;jettySize=auto;html=1;entryX=0.75;entryY=1;entryDx=0;entryDy=0;" parent="1" source="Or8a-sF6UrkhiUAnf4d3-22" edge="1">
          <mxGeometry relative="1" as="geometry">
            <mxPoint x="321" y="340" as="targetPoint" />
          </mxGeometry>
        </mxCell>
        <mxCell id="Or8a-sF6UrkhiUAnf4d3-40" style="edgeStyle=orthogonalEdgeStyle;rounded=0;orthogonalLoop=1;jettySize=auto;html=1;entryX=0.5;entryY=1;entryDx=0;entryDy=0;" parent="1" source="Or8a-sF6UrkhiUAnf4d3-22" edge="1">
          <mxGeometry relative="1" as="geometry">
            <Array as="points">
              <mxPoint x="321" y="380" />
              <mxPoint x="381" y="380" />
            </Array>
            <mxPoint x="381" y="340" as="targetPoint" />
          </mxGeometry>
        </mxCell>
        <mxCell id="Or8a-sF6UrkhiUAnf4d3-41" style="edgeStyle=orthogonalEdgeStyle;rounded=0;orthogonalLoop=1;jettySize=auto;html=1;entryX=0.5;entryY=1;entryDx=0;entryDy=0;" parent="1" source="Or8a-sF6UrkhiUAnf4d3-22" edge="1">
          <mxGeometry relative="1" as="geometry">
            <Array as="points">
              <mxPoint x="321" y="380" />
              <mxPoint x="461" y="380" />
            </Array>
            <mxPoint x="461" y="340" as="targetPoint" />
          </mxGeometry>
        </mxCell>
        <mxCell id="Or8a-sF6UrkhiUAnf4d3-22" value="System Administration" style="rounded=0;whiteSpace=wrap;html=1;" parent="1" vertex="1">
          <mxGeometry x="261" y="400" width="120" height="60" as="geometry" />
        </mxCell>
        <mxCell id="Or8a-sF6UrkhiUAnf4d3-23" value="Centre Staff" style="rounded=0;whiteSpace=wrap;html=1;" parent="1" vertex="1">
          <mxGeometry x="390" y="400" width="120" height="60" as="geometry" />
        </mxCell>
        <mxCell id="Or8a-sF6UrkhiUAnf4d3-24" value="&lt;u&gt;Cloud Based Environment&lt;/u&gt;" style="text;html=1;strokeColor=none;fillColor=none;align=center;verticalAlign=middle;whiteSpace=wrap;rounded=0;strokeWidth=2;" parent="1" vertex="1">
          <mxGeometry x="20" y="510" width="190" height="20" as="geometry" />
        </mxCell>
        <mxCell id="Or8a-sF6UrkhiUAnf4d3-25" value="&lt;div align=&quot;left&quot;&gt;&lt;ul&gt;&lt;li&gt;Linux CentOS v8&lt;/li&gt;&lt;li&gt;Apache Web Server v2.4&lt;/li&gt;&lt;li&gt;PHP v7&lt;/li&gt;&lt;li&gt;mySQL database v8.0&lt;/li&gt;&lt;li&gt;node.js v11&lt;/li&gt;&lt;li&gt;&lt;span style=&quot;text-align: center&quot;&gt;React v16.9&lt;/span&gt;&lt;/li&gt;&lt;li&gt;&lt;span style=&quot;text-align: center&quot;&gt;MYSQL&lt;/span&gt;&lt;/li&gt;&lt;/ul&gt;&lt;/div&gt;&lt;div align=&quot;center&quot;&gt;&lt;br&gt;&lt;/div&gt;&lt;div align=&quot;center&quot;&gt;&lt;br&gt;&lt;/div&gt;" style="text;html=1;strokeColor=none;fillColor=none;align=center;verticalAlign=middle;whiteSpace=wrap;rounded=0;" parent="1" vertex="1">
          <mxGeometry x="-10" y="530" width="220" height="180" as="geometry" />
        </mxCell>
        <mxCell id="Or8a-sF6UrkhiUAnf4d3-28" value="&lt;div align=&quot;left&quot;&gt;&lt;u&gt;User Client&lt;/u&gt;&lt;br&gt;&lt;/div&gt;" style="text;html=1;strokeColor=none;fillColor=none;align=left;verticalAlign=middle;whiteSpace=wrap;rounded=0;strokeWidth=2;" parent="1" vertex="1">
          <mxGeometry x="270" y="510" width="190" height="20" as="geometry" />
        </mxCell>
        <mxCell id="Or8a-sF6UrkhiUAnf4d3-29" value="&lt;div align=&quot;left&quot;&gt;&lt;ul&gt;&lt;li&gt;Desktop: Browser (Chrome, Edge, FireFox)&lt;/li&gt;&lt;li&gt;Mobile: iOS, Android&lt;br&gt;&lt;/li&gt;&lt;/ul&gt;&lt;/div&gt;&lt;div align=&quot;center&quot;&gt;&lt;br&gt;&lt;/div&gt;&lt;div align=&quot;center&quot;&gt;&lt;br&gt;&lt;/div&gt;" style="text;html=1;strokeColor=none;fillColor=none;align=center;verticalAlign=middle;whiteSpace=wrap;rounded=0;" parent="1" vertex="1">
          <mxGeometry x="221" y="540" width="320" height="60" as="geometry" />
        </mxCell>
        <mxCell id="Or8a-sF6UrkhiUAnf4d3-36" value="" style="endArrow=none;html=1;exitX=0.417;exitY=0;exitDx=0;exitDy=0;exitPerimeter=0;" parent="1" source="Or8a-sF6UrkhiUAnf4d3-21" edge="1">
          <mxGeometry width="50" height="50" relative="1" as="geometry">
            <mxPoint x="170" y="450" as="sourcePoint" />
            <mxPoint x="180" y="370" as="targetPoint" />
          </mxGeometry>
        </mxCell>
        <mxCell id="Or8a-sF6UrkhiUAnf4d3-43" value="" style="endArrow=none;html=1;" parent="1" edge="1">
          <mxGeometry width="50" height="50" relative="1" as="geometry">
            <mxPoint x="430" y="398" as="sourcePoint" />
            <mxPoint x="430" y="380" as="targetPoint" />
          </mxGeometry>
        </mxCell>
        <mxCell id="Or8a-sF6UrkhiUAnf4d3-52" value="" style="shape=link;html=1;" parent="1" edge="1">
          <mxGeometry width="50" height="50" relative="1" as="geometry">
            <mxPoint x="40" y="390" as="sourcePoint" />
            <mxPoint x="590" y="390" as="targetPoint" />
          </mxGeometry>
        </mxCell>
        <mxCell id="Or8a-sF6UrkhiUAnf4d3-57" style="edgeStyle=orthogonalEdgeStyle;rounded=0;orthogonalLoop=1;jettySize=auto;html=1;" parent="1" source="Or8a-sF6UrkhiUAnf4d3-54" edge="1">
          <mxGeometry relative="1" as="geometry">
            <mxPoint x="30" y="390" as="targetPoint" />
          </mxGeometry>
        </mxCell>
        <mxCell id="Or8a-sF6UrkhiUAnf4d3-54" value="&lt;div&gt;Load Balancer &lt;br&gt;&lt;/div&gt;&lt;div&gt;&amp;amp;&amp;nbsp;1st Tier Firewall&lt;/div&gt;" style="text;html=1;strokeColor=none;fillColor=none;align=center;verticalAlign=middle;whiteSpace=wrap;rounded=0;" parent="1" vertex="1">
          <mxGeometry x="-110" y="340" width="110" height="60" as="geometry" />
        </mxCell>
        <mxCell id="Or8a-sF6UrkhiUAnf4d3-58" value="" style="strokeWidth=2;html=1;shape=mxgraph.flowchart.annotation_2;align=left;labelPosition=right;pointerEvents=1;" parent="1" vertex="1">
          <mxGeometry x="20" y="230" width="50" height="60" as="geometry" />
        </mxCell>
        <mxCell id="Or8a-sF6UrkhiUAnf4d3-59" value="&lt;div&gt;2nd Tier Firewall &lt;br&gt;&lt;/div&gt;&lt;div&gt;between Web Server &lt;br&gt;&lt;/div&gt;&lt;div&gt;and App Server&lt;/div&gt;" style="text;html=1;strokeColor=none;fillColor=none;align=center;verticalAlign=middle;whiteSpace=wrap;rounded=0;" parent="1" vertex="1">
          <mxGeometry x="-120" y="210" width="140" height="100" as="geometry" />
        </mxCell>
      </root>
    </mxGraphModel>
  </diagram>
</mxfile>
